PathFileType	4	(X/Y/Z)	pose_F01_0-75.trc
DataRate	CameraRate	NumFrames	NumMarkers	Units	OrigDataRate	OrigDataStartFrame	OrigNumFrames
30	30	5	21	m	30	21	75
Frame#	Time	CHip			RHip			RKnee			RAnkle			RBigToe			RSmallToe			RHeel			LHip			LKnee			LAnkle			LBigToe			LSmallToe			LHeel			Neck			Nose			RShoulder			RElbow			RWrist			LShoulder			LElbow			LWrist			
		X1	Y1	Z1	X2	Y2	Z2	X3	Y3	Z3	X4	Y4	Z4	X5	Y5	Z5	X6	Y6	Z6	X7	Y7	Z7	X8	Y8	Z8	X9	Y9	Z9	X10	Y10	Z10	X11	Y11	Z11	X12	Y12	Z12	X13	Y13	Z13	X14	Y14	Z14	X15	Y15	Z15	X16	Y16	Z16	X17	Y17	Z17	X18	Y18	Z18	X19	Y19	Z19	X20	Y20	Z20	X21	Y21	Z21	
21	0.7	-0.2049184938501519	1.8817383910601742	-0.5859689669969408	-0.2124094999433881	1.8797880884601177	-0.5174575167981059	-0.21961605743235726	1.7174793197237448	-0.4844902817267022	-0.23089373008574873	1.5558551512557421	-0.4448064439329089	-0.19607005662527865	1.5096592894226168	-0.4688303337981986	-0.20335798007885922	1.5118827318303882	-0.428375768804235	-0.2436941164375269	1.5493370424818789	-0.43990319422731283	-0.1907284783231748	1.884119079834478	-0.6640998458403462	-0.20875682505424978	1.7200573301476667	-0.6358580055831691	-0.22062986635620904	1.5724478779377216	-0.6227377041483655	-0.1826897461414027	1.5372831821444828	-0.6809787907070289	-0.1891276913187246	1.5422931212458717	-0.6950862579430529	-0.23004857094071338	1.5642521872320287	-0.5956060846183625	-0.20473059654540857	2.0655891218825584	-0.601857251229503	-0.1718507351049447	2.1384448629030226	-0.6503572711236957	-0.21623437666342335	2.0667598527269226	-0.4971426000037142	-0.22572293036013577	1.9718747132154693	-0.4337868728464724	-0.20879746781891456	1.8952377222309476	-0.44510047260933516	-0.1934565036952674	2.067180677425045	-0.6980586854574631	-0.19106655402952638	1.9796552224373902	-0.7264502989608673	-0.1853365844778954	1.8953973801724107	-0.7403216484256063
22	0.7333333333333333	-0.20236710088602541	1.886916723740056	-0.5890219744026474	-0.21003817535484126	1.8852078624698592	-0.5204653875197238	-0.21483758297369468	1.7203768631595735	-0.4858108500669934	-0.23095981092247528	1.5563078267678525	-0.4446703116221049	-0.1961744668947022	1.509817908739299	-0.46895323655170856	-0.20322163406448523	1.5108595622335286	-0.42873513151009124	-0.2441028263981573	1.5516890439916962	-0.43950147718840077	-0.1880682890481004	1.8907188330388418	-0.6671249361963142	-0.20642387102059678	1.7224443820054514	-0.6385551592650298	-0.2204708412806861	1.5717306477262416	-0.6231014809560407	-0.1827305489178769	1.5375461354903701	-0.681158747400472	-0.18948871742103127	1.5424903757572352	-0.6992274078795905	-0.2291771751767268	1.5645263933079308	-0.5928588189190607	-0.20176801481072093	2.066912649466448	-0.6016139109428734	-0.16966295701521103	2.142098872655931	-0.653500306680982	-0.21609819569962696	2.069069200755851	-0.4976051791059554	-0.22127849073971456	1.973278925586643	-0.412178422692958	-0.2091122955964116	1.9093555048431732	-0.4507446626606769	-0.1873810796113759	2.0684609199004287	-0.6971271250022161	-0.1915703266973864	1.9834685736094986	-0.7314338665026029	-0.18625207546374312	1.9072892533859018	-0.745027308975096
23	0.7666666666666667	-0.20374864181029617	1.8894698583849212	-0.5839713984721114	-0.21134006954226056	1.8865182214685459	-0.5152757677854289	-0.21507080299212947	1.7224654745576393	-0.48564498085250984	-0.22928798428572944	1.558692642679753	-0.43775738426453736	-0.19526747242237352	1.512505516648838	-0.4661853086576694	-0.20347816763649104	1.514538986258258	-0.4288242149430029	-0.24110714727132473	1.5528412903770847	-0.42942028933680126	-0.18934841578920905	1.8943742320925405	-0.6623704020341449	-0.20496591318178306	1.7278410748347812	-0.6407688185844799	-0.2208005859642156	1.5738951406554813	-0.6275081532277607	-0.1858373616585541	1.5378159365386257	-0.6821752388832739	-0.18961131806926282	1.5427885588813703	-0.6992474915547292	-0.2296710383205489	1.5622155586826345	-0.5960459813289739	-0.20146509541601265	2.0726635152350656	-0.6015620511226701	-0.16874354865931088	2.144392677244042	-0.6510438789845101	-0.21409041588626512	2.071387044232597	-0.500202522317318	-0.22083633887494558	1.985846106968246	-0.40577381449552674	-0.20286974039199626	1.9328369744121294	-0.45318993073307645	-0.18734316175063	2.071002750501724	-0.6972744394419282	-0.19579756547060714	1.9934437565618324	-0.7281647406710994	-0.1842430210671175	1.9332411849652251	-0.7537216862215456
24	0.8	-0.20582259991389523	1.8896516386739601	-0.5816517442835305	-0.21127201237459192	1.8877332152571245	-0.5152819469807007	-0.21353550730470383	1.7271048185802518	-0.48330458444551516	-0.22738628015196594	1.561469001060339	-0.4217314488367455	-0.1965939122722876	1.5113689618785617	-0.4689428942701421	-0.20358521302194457	1.5122778498276555	-0.42868171547745704	-0.24084801595594943	1.559922837998943	-0.4075842942247134	-0.19584570162419027	1.8938918070602537	-0.6554101573182509	-0.20076857373850165	1.7320856331460959	-0.6496546872132195	-0.21877333397740462	1.5778797287102817	-0.6302257503744793	-0.18459531296789775	1.5359756380079355	-0.6793104500861941	-0.1898110835993076	1.5438137815765538	-0.699269881887552	-0.2298364015712836	1.5664211473008092	-0.6049679453887568	-0.20138876295739896	2.076513585985196	-0.6024616456510199	-0.1686654202586538	2.1458559726337136	-0.65164860224315	-0.21311345249729072	2.0763740606376766	-0.49885458492021795	-0.214993996650893	1.992339969454334	-0.40578998734502575	-0.19484862653170917	1.9407583200168008	-0.4902919590650451	-0.18928776915933687	2.077364374712682	-0.6962503898388439	-0.20798782226418508	2.003908594809898	-0.7031809069577356	-0.1836706462100237	1.966691790435565	-0.7616913502439727
25	0.8333333333333334	-0.2049849330765065	1.896401003003114	-0.5792833830477114	-0.21153458179824564	1.8930217515130852	-0.5076479509949642	-0.21520557270528495	1.734948125867674	-0.47338345397704273	-0.22799239624994924	1.5639275397448833	-0.4113780796353029	-0.19726210861328056	1.5124325287088032	-0.47242751427395613	-0.20418531471783888	1.5129961154598965	-0.4321717858726651	-0.23804863704456283	1.562072942740293	-0.391243889790657	-0.19932670451035844	1.8995082690653091	-0.6484739263588964	-0.19786634331321404	1.7426163188731436	-0.6536361807980923	-0.21776858979008262	1.5849393513806873	-0.63606044333355	-0.18411240013649469	1.5341514809641603	-0.679424276875171	-0.18709148538056544	1.5443568630495006	-0.7021026117140352	-0.2301019215358406	1.5714020519577319	-0.6050450083196933	-0.2024148306889055	2.0815454950439007	-0.5987435058309681	-0.16852553968104514	2.1524145503685177	-0.6529619705029069	-0.21288196740610305	2.081901212564067	-0.4996102573735553	-0.21185388091170043	2.000779238688744	-0.40621839449950214	-0.18367696803342978	1.9686870356288966	-0.5147231085658758	-0.1904711214828032	2.0823071770548447	-0.6917172559692776	-0.19988488513287292	2.010989724693562	-0.7066632730688286	-0.16836512527241143	1.9794776187584915	-0.7712552529112009
